<?xml version="1.0" standalone="no"?>
<!DOCTYPE svg PUBLIC "-//W3C//DTD SVG 20010904//EN"
 "http://www.w3.org/TR/2001/REC-SVG-20010904/DTD/svg10.dtd">
<svg version="1.0" xmlns="http://www.w3.org/2000/svg"
 width="364.000000pt" height="364.000000pt" viewBox="0 0 364.000000 364.000000"
 preserveAspectRatio="xMidYMid meet">
<metadata>
Created by potrace 1.11, written by Peter Selinger 2001-2013
</metadata>
<g transform="translate(0.000000,364.000000) scale(0.100000,-0.100000)"
fill="#000000" stroke="none">
<path d="M1625 3610 c-161 -23 -207 -32 -316 -64 -160 -47 -306 -112 -449
-200 -36 -22 -69 -44 -75 -48 -182 -140 -266 -218 -367 -339 -186 -223 -335
-536 -383 -804 -4 -22 -9 -51 -12 -65 -18 -99 -25 -318 -14 -477 l1 -23 1809
0 1809 0 5 32 c10 63 -2 384 -17 473 -99 573 -446 1050 -958 1319 -147 77
-342 146 -483 171 -16 3 -42 7 -56 10 -118 22 -382 30 -494 15z"/>
<path d="M1993 1322 l-102 -3 -3 -100 c-2 -54 -1 -104 0 -109 4 -10 302 -14
302 -5 0 2 -7 30 -16 62 -8 32 -21 78 -27 102 -15 54 -23 57 -154 53z"/>
<path d="M2227 1322 c-26 -2 -37 -7 -34 -16 3 -7 15 -52 27 -102 13 -49 25
-91 27 -94 6 -6 283 -8 283 -2 0 2 -17 34 -37 70 -20 37 -45 84 -57 105 -11
20 -25 37 -30 38 -34 3 -147 4 -179 1z"/>
<path d="M2485 1319 c-2 -3 21 -47 51 -98 30 -51 54 -97 54 -101 0 -14 23 -16
159 -15 78 0 136 5 137 10 2 6 -34 55 -79 110 l-83 100 -118 0 c-65 0 -119 -3
-121 -6z"/>
<path d="M2800 1325 c0 -1 8 -11 18 -23 26 -31 42 -51 100 -125 30 -37 58 -67
63 -68 5 0 23 -1 39 -1 17 0 77 1 134 1 l105 1 -109 108 -108 107 -121 1 c-67
0 -121 -1 -121 -1z"/>
<path d="M567 1224 c-51 -50 -101 -101 -111 -113 l-20 -21 139 2 139 3 86 110
86 110 -114 0 -114 0 -91 -91z"/>
<path d="M950 1299 c-8 -9 -22 -25 -30 -35 -8 -11 -31 -40 -51 -64 -19 -25
-45 -59 -57 -76 l-21 -31 149 2 c82 1 151 3 153 6 3 2 26 45 52 94 26 50 52
94 56 100 5 5 9 12 9 15 0 3 -55 6 -122 6 -100 -1 -126 -4 -138 -17z"/>
<path d="M1272 1306 c-4 -6 -12 -20 -18 -31 -5 -11 -29 -55 -52 -97 -23 -42
-39 -78 -35 -80 16 -8 285 0 293 8 5 5 18 47 30 94 11 47 23 92 26 102 4 14
-8 16 -116 15 -73 0 -124 -5 -128 -11z"/>
<path d="M1575 1307 c-2 -7 -13 -48 -25 -92 -12 -44 -24 -88 -26 -97 -5 -17 7
-18 154 -18 l158 0 1 110 2 110 -130 -1 c-90 0 -131 -4 -134 -12z"/>
<path d="M2304 1052 c-42 -3 -42 -3 -33 -35 4 -18 16 -66 26 -107 l19 -75 182
-3 c100 -1 182 1 182 4 0 7 -108 204 -116 213 -5 6 -199 7 -260 3z"/>
<path d="M2630 1053 c0 -2 13 -27 29 -56 16 -28 43 -77 59 -107 l31 -55 186
-3 186 -2 -82 102 c-45 57 -86 108 -91 113 -8 9 -318 16 -318 8z"/>
<path d="M741 1030 c-21 -19 -151 -187 -151 -194 0 -3 81 -6 179 -6 l180 0 14
28 c8 15 33 62 56 104 22 42 41 78 41 80 0 2 -68 3 -151 3 -121 0 -155 -3
-168 -15z"/>
<path d="M1133 1041 c-5 -3 -34 -52 -65 -109 l-56 -102 191 2 191 3 21 80 c12
44 25 92 28 106 l7 27 -154 -1 c-85 0 -159 -3 -163 -6z"/>
<path d="M1505 1038 c-5 -13 -55 -201 -55 -205 0 -2 87 -3 193 -3 l192 0 1
110 1 110 -164 0 c-122 0 -165 -3 -168 -12z"/>
<path d="M1889 1038 c0 -7 -1 -57 -2 -110 l-2 -98 187 0 c104 0 188 3 188 6 0
3 -12 53 -27 110 l-27 104 -158 0 c-119 0 -158 -3 -159 -12z"/>
<path d="M938 695 l-46 -85 222 0 222 0 19 73 c10 39 20 78 23 85 3 9 -40 12
-194 12 l-199 0 -47 -85z"/>
<path d="M1435 768 c-2 -7 -13 -46 -24 -85 l-20 -73 220 0 c187 0 219 2 220
15 1 8 2 47 3 85 l1 70 -198 0 c-149 0 -199 -3 -202 -12z"/>
<path d="M1889 778 c-1 -2 -2 -40 -3 -85 l-2 -83 218 0 c120 0 218 3 218 6 0
4 -10 42 -22 85 l-21 79 -194 0 c-106 0 -194 -1 -194 -2z"/>
<path d="M2352 708 c11 -40 22 -79 24 -85 3 -10 55 -13 219 -13 l215 0 -36 63
c-19 34 -40 72 -46 85 -11 22 -14 22 -203 22 l-193 0 20 -72z"/>
<path d="M1375 548 c-2 -7 -15 -57 -28 -110 l-25 -98 254 0 254 0 1 23 c0 12
1 61 2 110 l2 87 -228 0 c-173 0 -229 -3 -232 -12z"/>
<path d="M1883 450 l-1 -110 254 0 c140 0 254 3 254 8 0 4 -12 53 -26 110
l-27 102 -226 0 -227 0 -1 -110z"/>
</g>
</svg>
