<svg version="1.0" xmlns="http://www.w3.org/2000/svg"
 width="400.000000pt" height="400.000000pt" viewBox="0 0 400.000000 400.000000"
 preserveAspectRatio="xMidYMid meet">
<g transform="translate(0.000000,400.000000) scale(0.100000,-0.100000)"
fill="#ffffff" stroke="none">
<path d="M671 3903 c-7 -38 -18 -99 -26 -138 -8 -38 -25 -131 -39 -205 -36
-190 -194 -1029 -216 -1145 -6 -27 -19 -95 -30 -150 -11 -54 -20 -112 -20
-127 l0 -28 144 0 143 0 7 43 c4 23 16 98 27 166 10 69 21 126 23 129 4 4 328
3 332 -1 1 -1 15 -77 30 -169 l28 -168 158 0 c139 0 158 2 158 16 0 9 -11 71
-24 138 -13 66 -34 173 -46 236 -11 63 -32 171 -45 240 -13 69 -40 211 -60
315 -20 105 -44 233 -55 285 -10 52 -30 158 -45 235 -14 77 -30 160 -35 185
-5 25 -14 74 -20 110 -19 111 3 100 -200 100 l-178 0 -11 -67z m244 -838 c30
-181 55 -338 55 -347 0 -16 -12 -18 -120 -18 -144 0 -134 -24 -90 220 6 30 26
154 46 275 37 232 45 267 51 225 2 -14 28 -173 58 -355z"/>
<path d="M1540 3041 l0 -931 155 0 155 0 0 421 c0 376 5 465 23 387 2 -13 51
-156 107 -318 56 -162 116 -338 134 -390 l33 -95 162 -3 163 -3 -6 28 c-4 16
-15 51 -26 78 -10 28 -45 127 -78 220 -33 94 -88 247 -121 341 -34 95 -61 174
-61 177 0 3 17 11 38 18 126 41 187 127 204 288 15 145 4 405 -21 477 -39 109
-89 161 -202 207 -51 20 -73 22 -356 25 l-303 3 0 -930z m515 655 c47 -31 55
-68 55 -266 0 -204 -8 -237 -62 -270 -26 -16 -50 -20 -115 -20 l-83 0 0 291 0
291 89 -4 c62 -3 96 -9 116 -22z"/>
<path d="M2550 3845 l0 -125 130 0 130 0 0 -805 0 -805 155 0 155 0 2 803 3
802 128 3 127 3 0 124 0 125 -415 0 -415 0 0 -125z"/>
<path d="M3390 2260 l0 -150 150 0 150 0 0 150 0 150 -150 0 -150 0 0 -150z"/>
<path d="M680 1923 c-196 -30 -312 -132 -367 -320 -14 -50 -17 -128 -21 -557
-2 -308 1 -536 7 -595 31 -283 183 -422 462 -423 195 0 318 62 386 195 43 84
52 153 53 380 l0 207 -139 0 -139 0 -4 -212 c-3 -200 -4 -215 -26 -249 -27
-44 -70 -64 -135 -63 -51 1 -85 20 -121 68 -21 27 -21 39 -24 608 -2 563 -2
582 18 622 26 55 70 80 141 81 64 0 100 -19 126 -68 14 -26 18 -65 21 -194 l4
-163 139 0 139 0 0 152 c0 240 -25 336 -112 425 -82 84 -257 130 -408 106z"/>
<path d="M1735 1914 c-92 -20 -177 -67 -227 -123 -52 -60 -75 -105 -98 -199
-18 -71 -20 -116 -20 -614 0 -584 2 -614 57 -722 38 -74 67 -110 127 -151 78
-54 161 -76 284 -76 156 -1 269 39 348 123 55 58 78 99 106 188 23 75 23 76
23 635 0 547 0 562 -22 633 -35 116 -90 194 -175 248 -98 62 -272 87 -403 58z
m216 -271 c16 -10 38 -36 49 -58 19 -40 20 -64 20 -608 0 -459 -3 -574 -14
-600 -48 -114 -211 -125 -277 -20 l-24 38 -3 558 c-2 369 1 571 8 597 14 51
53 97 93 110 42 12 111 4 148 -17z"/>
<path d="M2530 975 l0 -925 130 0 130 0 1 603 c1 642 0 633 43 402 19 -102 98
-512 126 -655 10 -52 28 -144 40 -205 31 -161 20 -146 103 -143 l72 3 11 65
c6 36 21 119 32 185 12 66 28 161 37 210 21 118 67 383 100 570 14 83 27 155
30 160 2 6 4 -261 4 -592 l1 -603 145 0 145 0 0 925 0 925 -200 0 c-153 0
-200 -3 -200 -12 0 -7 -7 -51 -15 -98 -9 -47 -31 -177 -51 -290 -19 -113 -48
-281 -65 -375 -16 -93 -32 -187 -35 -207 -4 -21 -10 -38 -13 -38 -4 0 -16 44
-25 98 -19 97 -116 596 -158 810 l-22 112 -183 0 -183 0 0 -925z"/>
</g>
</svg>
