<?xml version="1.0" encoding="utf-8"?>
<!-- Generator: Adobe Illustrator 22.1.0, SVG Export Plug-In . SVG Version: 6.00 Build 0)  -->
<svg version="1.1" id="Layer_1" xmlns="http://www.w3.org/2000/svg" xmlns:xlink="http://www.w3.org/1999/xlink" x="0px" y="0px"
	 viewBox="0 0 2308 1054.9">
<g fill="#2b2d42">
	<path d="M1177.6,68.3c-46.4,57.3-178.9,242.2-194,266.1c-29.1,45.9-31.6,68.1-32.5,82.9c-0.8,14.5-0.8,40.8,22.8,62.1
		c39.6,35.3,95.2,29.6,144.5,29.6h406c17.4,0,22.5-5.1,31.9-17.7c32.5-49.6,47-103.4,47-151.6c0-103.1-66.9-233.1-236.5-291.8
		l-19.1,27.4c134.5,63.8,190.1,147.3,190.1,264.1c0.9,31.3-7.4,65.3-27.9,96.6H1115c-23.6,0-27.1-26.8-18.5-41.9
		c33.9-60.3,71.6-118.2,113.1-173.5c39.9-53.3,79.2-103.1,120.5-155.3c11.1-14.5,3.7-28.5-18.5-33c-46.2-9.7-94.3-16.5-152.7-16.5
		c-323.9,0-442.5,186.1-442.5,324c0,149.6,119.4,323.1,443.3,323.1c179.8,0,297.5-57.9,365.6-132.2h-68.7
		c-59.6,55-161.8,94-296.9,94c-274.4,0-375.5-154.2-375.5-286.9c2-118.5,110.5-282.1,382.4-287.5
		C1176.8,50.1,1184.8,59.5,1177.6,68.3L1177.6,68.3z M2152.1,922.3c16.2,2.3,28.8,15.1,28.8,30.2c0,17.1-15.4,30.8-34.2,30.8h-348.2
		V755.6h-102.6v228.2h-188.6c-51,0-61.5-31.1-61.5-59.6V754.2h-170.1c-16.8,11.4-33.1,23.9-50.4,34.5l-100.9,62.1L993.3,755h-204
		v57.3h73.8v-31.4l173.5,124.5l-118.5,74.3H789.3v57.3h149c16-10.8,31.1-22.2,47.6-32.2l103.7-63l131.6,94h149.9l-198-149
		l101.7-66.4c21.7-14.3,44.5-26.2,66.7-39.3v149.9c0,63.3,16.2,107.1,143.6,107.1l719.4-1.7c55.5,0.8,91.2-37.6,91.2-84
		c0-46.2-41-84.1-91.2-84.1h-259.8c3.4-31.6,30.8-58.1,58.4-58.1h263l-0.8-55h-279c-88.3,0-159,73.2-161,158.4
		c-0.3,6,3.7,9.7,10.3,9.7L2152.1,922.3L2152.1,922.3z M789.3,921.4V863H840v58.4H789.3z M789.3,755H596.7
		c-52.1,0-92.3,13.7-121.9,37c-53.3,42.2-70.4,86.6-69.8,106.6h69.5c-30.5,22.8-51,50.1-61.8,81.8h-228c-41,0-67.5-29.1-67.5-57.3
		V753H16.3v176.7c0,63.5,60.4,107.4,157.3,107.4h615.7v-57.3H544.8c1.1-29.1,32.2-58.4,60.4-58.4h184.1V863H542
		c-3.4-17.1,28.5-50.7,53-50.7h194.3V755L789.3,755z"/>
</g>
</svg>
