<svg xmlns="http://www.w3.org/2000/svg" viewBox="0 0 363 328">
  <title>Joseph M Schmidt</title>
  <path d="M190,447h21l-17,22H168Z" transform="translate(-124 -216)" fill="#edf2f4" fill-rule="evenodd"/>
  <path d="M220,447h24l-12,22H202Z" transform="translate(-124 -216)" fill="#edf2f4" fill-rule="evenodd"/>
  <path d="M251,447h24l-5,22H240Z" transform="translate(-124 -216)" fill="#edf2f4" fill-rule="evenodd"/>
  <path d="M282,447h26l-1,22H276Z" transform="translate(-124 -216)" fill="#edf2f4" fill-rule="evenodd"/>
  <path d="M313,447h25l5,22H313Z" transform="translate(-124 -216)" fill="#edf2f4" fill-rule="evenodd"/>
  <path d="M343,447h22l12,22H350Z" transform="translate(-124 -216)" fill="#edf2f4" fill-rule="evenodd"/>
  <path d="M373,447h25l17,22H385Z" transform="translate(-124 -216)" fill="#edf2f4" fill-rule="evenodd"/>
  <path d="M406,447h23l22,22H424Z" transform="translate(-124 -216)" fill="#edf2f4" fill-rule="evenodd"/>
  <path d="M199,473h31l-12,22H181Z" transform="translate(-124 -216)" fill="#edf2f4" fill-rule="evenodd"/>
  <path d="M237,473h32l-6,22H225Z" transform="translate(-124 -216)" fill="#edf2f4" fill-rule="evenodd"/>
  <path d="M275,473h33l-1,22H269Z" transform="translate(-124 -216)" fill="#edf2f4" fill-rule="evenodd"/>
  <path d="M313,473h32l5,22H313Z" transform="translate(-124 -216)" fill="#edf2f4" fill-rule="evenodd"/>
  <path d="M350,473h31l11,22H356Z" transform="translate(-124 -216)" fill="#edf2f4" fill-rule="evenodd"/>
  <path d="M387,473h31l18,22H400Z" transform="translate(-124 -216)" fill="#edf2f4" fill-rule="evenodd"/>
  <path d="M223,500h39l-5,17H213Z" transform="translate(-124 -216)" fill="#edf2f4" fill-rule="evenodd"/>
  <path d="M268,500h39v17H264Z" transform="translate(-124 -216)" fill="#edf2f4" fill-rule="evenodd"/>
  <path d="M313,500h39l4,17H313Z" transform="translate(-124 -216)" fill="#edf2f4" fill-rule="evenodd"/>
  <path d="M358,500h37l10,17H362Z" transform="translate(-124 -216)" fill="#edf2f4" fill-rule="evenodd"/>
  <path d="M262.12,522H307v22H257Z" transform="translate(-124 -216)" fill="#edf2f4" fill-rule="evenodd"/>
  <path d="M313.12,522H357l6,22H313Z" transform="translate(-124 -216)" fill="#edf2f4" fill-rule="evenodd"/>
  <path d="M125.28,419.17A184.49,184.49,0,0,1,124,397.5a181.5,181.5,0,0,1,363,0,183.35,183.35,0,0,1-1.24,21.34" transform="translate(-124 -216)" fill="#edf2f4" fill-rule="evenodd"/>
</svg>
