<?xml version="1.0" encoding="utf-8"?>
<!-- Generator: Adobe Illustrator 22.1.0, SVG Export Plug-In . SVG Version: 6.00 Build 0)  -->
<svg version="1.1" id="Layer_1" xmlns="http://www.w3.org/2000/svg" xmlns:xlink="http://www.w3.org/1999/xlink" x="0px" y="0px"
	 viewBox="0 0 2500 1604.1" style="enable-background:new 0 0 2500 1604.1;" xml:space="preserve">
<style type="text/css">
	.st0{fill:#FFFFFF;}
</style>
<g>
	<path d="M1250.1,1468.3c-1.9,0-3.7-0.1-5.7-0.1c72-82.2,250.7-306.2,274.5-532.1h621.5l2.6-0.8
		C2057.7,1239.6,1690.3,1468.3,1250.1,1468.3L1250.1,1468.3z M357.1,936.1h752c188.9,121.3,136.9,430.1,113.8,531.9
		C794.9,1458.8,441,1233.6,357.1,936.1z M1239.8,132.1c-67.6,70.3-217.4,250-268.5,507.5H364.8
		C462.1,350.5,816.1,135.5,1239.8,132.1z M1267.6,132.1c420.2,5.8,770.8,220,867.6,507.5h-773.5
		C1217,529.2,1251.4,231.6,1267.6,132.1L1267.6,132.1z M1250.1,16C620.5,16,110.3,367,110.3,800.1c0,433,510.2,784,1139.8,784
		c629.4,0,1139.6-351,1139.6-784C2389.7,367,1879.3,16,1250.1,16L1250.1,16z"/>
	<path class="st0" d="M2165.7,843.5c0,18.6-15.6,32.4-34.8,32.4h-21V743.5c0-8.3-7.2-15.2-16.2-15.2H1824v147.7h-57.2V695.8H2118
		c27,0,47.8,21,47.8,46.8L2165.7,843.5z M335.6,843.4l325.8,0.1c9.6,0,16.3-5.8,16.2-14.1l-0.1-27H335.9v-59.8
		c0-26.2,22.2-46.8,49.3-46.8h349.4v32.4H407c-10.4,0-13.9,6.2-13.9,14.4l-0.4,27.4h342v59.4c0,26.4-21.8,46.5-49.1,46.5H370.4
		C351.2,875.9,335.6,861.9,335.6,843.4L335.6,843.4z M836.5,828.4c0,8.2,7.2,15.1,16.5,15.1h324.7v32.4H828.6
		c-27.2,0-49.3-20.9-49.3-46.8v-86.5c0-25.7,22-46.8,49.3-46.8h349.1v32.4H853c-9.3,0-16.5,7.1-16.5,15.2L836.5,828.4L836.5,828.4z
		 M1279.5,695.8V876h-57.4l0.1-180.2H1279.5z M1722.3,742.6v86.5c0,25.9-22,46.8-49.1,46.8h-299.8c-27.2,0-49.3-20.9-49.3-46.8
		v-86.5c0-25.7,22-46.8,49.3-46.8h299.8C1700.3,695.8,1722.3,716.8,1722.3,742.6z M1648.6,728.2h-250.9c-9.3,0-16.6,6.9-16.6,15.1
		v84.9c0,8.3,7.3,15.2,16.6,15.2h250.9c9.3,0,16.6-6.9,16.5-15.1l0.1-85C1665.1,735.2,1657.9,728.2,1648.6,728.2L1648.6,728.2z"/>
</g>
</svg>
