<?xml version="1.0" encoding="utf-8"?>
<!-- Generator: Adobe Illustrator 17.1.0, SVG Export Plug-In . SVG Version: 6.00 Build 0)  -->
<!DOCTYPE svg PUBLIC "-//W3C//DTD SVG 1.1//EN" "http://www.w3.org/Graphics/SVG/1.1/DTD/svg11.dtd">
<svg version="1.1" id="Layer_1" xmlns="http://www.w3.org/2000/svg" xmlns:xlink="http://www.w3.org/1999/xlink" x="0px" y="0px"
	 viewBox="0 0 76 20.6" enable-background="new 0 0 76 20.6" xml:space="preserve">
<g>
	<polygon fill="#FFFFFF" points="1.5,5.5 3.6,5.5 3.9,2.3 12.1,2.3 12.1,2.4 0.8,17.9 0.8,20.1 15.4,20.1 15.4,14.6 13.3,14.6 
		12.9,18.1 4.3,18.1 4.3,18.1 15.6,2.6 15.6,0.3 1.5,0.3 	"/>
	<path fill="#FFFFFF" d="M33.6,2.1h2.5v11c0,4-2,5-4.8,5c-2.9,0-4.8-1-4.8-5v-11h2.5V0.3h-7.8v1.9h1.1c0.5,0,0.9,0.5,0.9,0.9v9.9
		c0,5.1,2.9,7.4,7.8,7.4c5,0,7.6-2.4,7.6-7.4V3.1c0-0.4,0.5-0.9,0.9-0.9h1.1V0.3h-7V2.1z"/>
	<path fill="#FFFFFF" d="M59,18.1h-7.2v-16h2.9V0.3h-8.2v1.9h1.2c0.4,0,0.9,0.5,0.9,0.9v14.3c0,0.4-0.5,0.9-0.9,0.9h-1.2v1.8h15.2
		V14h-2.2L59,18.1z"/>
	<path fill="#FFFFFF" d="M73.5,2.1h1.4V0.3H67v1.9h1.4c0.5,0,0.9,0.5,0.9,0.9v14.3c0,0.4-0.4,0.9-0.9,0.9H67v1.8h7.9v-1.8h-1.4
		c-0.5,0-0.9-0.5-0.9-0.9V3.1C72.6,2.6,73,2.1,73.5,2.1z"/>
</g>
</svg>
